<?xml version="1.0" encoding="UTF-8"?>
<svg width="177px" height="33px" viewBox="0 0 177 33" version="1.1" xmlns="http://www.w3.org/2000/svg" xmlns:xlink="http://www.w3.org/1999/xlink">
    <!-- Generator: Sketch 52.4 (67378) - http://www.bohemiancoding.com/sketch -->
    <title>Asset 1</title>
    <desc>Created with Sketch.</desc>
    <g id="Visual-Design" stroke="none" stroke-width="1" fill="none" fill-rule="evenodd">
        <g id="Partners-&amp;-Alliances" transform="translate(-62.000000, -48.000000)">
            <g id="Asset-1" transform="translate(62.000000, 48.000000)">
                <path d="M104,7.83687792 L105.539589,7.83687792 L106.073314,10.0929392 L106.237537,10.0929392 C107.545586,8.51653119 109.469729,7.57266872 111.52346,7.5 C115.331378,7.5 118,10.7871119 118,16.4936197 C118,22.2001276 115.331378,25.4872395 111.52346,25.4872395 C109.488501,25.4223336 107.579062,24.4932177 106.278592,22.935134 L106.11437,22.935134 L106.11437,31.5 L104.061584,31.5 L104,7.83687792 Z M106.052786,20.5463632 C107.78739,22.741174 109.357771,23.8334751 111.297654,23.8334751 C114.171554,23.8334751 115.865103,21.2813696 115.865103,16.5344534 C115.865103,11.7875372 114.16129,9.23543173 111.297654,9.23543173 C109.357771,9.23543173 107.797654,10.2562739 106.052786,12.4919183 L106.052786,20.5463632 Z" id="Shape" fill="#047BC1" fill-rule="nonzero"></path>
                <path d="M122.029126,7.76071842 L123.970874,7.76071842 L123.970874,10.8893395 L124.165049,10.8893395 C125.300971,8.55330243 126.757282,7.5 128.902913,7.5 L129,7.5 L129,9.58574739 L128.708738,9.58574739 C126.407767,9.58574739 124.893204,11.0144844 123.941748,14.3725377 L123.941748,25.5 L122,25.5 L122.029126,7.76071842 Z" id="Path" fill="#047BC1"></path>
                <rect id="Rectangle" fill="#047BC1" x="133" y="7.5" width="2" height="18"></rect>
                <path d="M145.064754,23.9115477 C147.313115,23.9115477 148.804918,22.5498909 148.804918,20.7172851 C148.804918,18.6696809 147.110656,18.1577799 144.127049,17.0930257 C140.45082,15.792797 138.543443,14.799709 138.543443,12.1275855 C138.543443,9.45546201 140.791803,7.5 144.404098,7.5 C146.841282,7.53838548 149.100241,8.73479243 150.435246,10.6942626 L148.911475,11.7180647 C147.856015,10.1049665 146.014253,9.12359342 144.031148,9.11760732 C143.190723,9.03249311 142.352637,9.29756976 141.729176,9.84569367 C141.105714,10.3938176 140.756683,11.1724096 140.770492,11.9842532 C140.770492,13.847573 142.539344,14.2775699 145.554918,15.3832762 C149.156557,16.6835049 151,17.748259 151,20.5022867 C151,23.2563143 148.570492,25.498441 144.830328,25.498441 C142.093257,25.5512828 139.517518,24.2579177 138,22.0687039 L139.598361,20.8401414 C141.154098,22.8877456 142.954918,23.9115477 145.064754,23.9115477 Z" id="Path" fill="#047BC1"></path>
                <path d="M155.122222,7.81321415 L157.006481,7.81321415 L157.006481,10.5478553 L157.138889,10.5478553 C158.962037,8.46828029 160.876852,7.50127789 162.7,7.50127789 C164.591893,7.45442608 166.282634,8.70007151 166.835185,10.5478553 L167.069444,10.5478553 C168.953704,8.46828029 170.776852,7.50127789 172.630556,7.50127789 C175.543519,7.50127789 177,9.39369119 177,13.1785178 L177,25.5 L175.044444,25.5 L175.044444,13.9271648 C175.044444,10.8078022 174.514815,9.33130394 172.060185,9.33130394 C170.471296,9.33130394 168.75,10.3710915 167.059259,12.6066347 L167.059259,25.5 L165.022222,25.5 L165.022222,13.9271648 C165.022222,10.8078022 164.492593,9.33130394 162.037963,9.33130394 C160.449074,9.33130394 158.758333,10.3710915 157.037037,12.6066347 L157.037037,25.5 L155,25.5 L155.122222,7.81321415 Z" id="Path" fill="#047BC1"></path>
                <path d="M46.4234551,0.5 L46.4234551,9.28626023 C47.4278921,7.87597283 49.0675372,7.04917409 50.8054775,7.07660479 C55.1242978,7.07660479 58,10.4801025 58,16.1665617 C58,22.0938839 55.2928371,25.4973816 50.8370787,25.4973816 C48.946933,25.5544512 47.1514152,24.675657 46.0442416,23.1515863 L45.5280899,25.2460464 L43,25.2460464 C43.1685393,23.4762276 43.2106742,21.8111318 43.2106742,20.2402867 L43.2106742,0.5 L46.4234551,0.5 Z M50.3314607,22.8060003 C53.0702247,22.8060003 54.681882,20.5963449 54.681882,16.4074247 C54.681882,12.0195307 53.1018258,9.76798606 50.2261236,9.76798606 C48.6983799,9.83483991 47.2906273,10.6102116 46.4234551,11.8624462 L46.4234551,20.5439834 C47.2834234,21.8799551 48.7382789,22.722049 50.3314607,22.8060003 Z" id="Shape" fill="#124E91" fill-rule="nonzero"></path>
                <polygon id="Path" fill="#124E91" points="64 1.5 64 25.5 61 25.5 61 1.5"></polygon>
                <path d="M72.0712626,7.5 L72.0712626,19.4236994 C72.0712626,21.7543353 72.796282,22.8364162 74.5886909,22.8364162 C76.2738301,22.6803208 77.825501,21.8242378 78.8884586,20.4641618 L78.8884586,7.5 L82,7.5 L82,25.1878613 L79.120062,25.1878613 L79.120062,22.8260116 C77.2168861,24.5843931 75.5553834,25.5 73.6219985,25.5 C70.7118513,25.5 69,23.6375723 69,20.2976879 L69,7.5 L72.0712626,7.5 Z" id="Path" fill="#124E91"></path>
                <path d="M89.177665,17.0738968 L89.177665,17.4103596 C89.177665,20.9279255 90.7614213,22.8855274 93.5025381,22.8855274 C95.313966,22.8931631 96.9587936,21.8252376 97.6954315,20.1632373 L100,21.5498719 C98.72818,24.0542843 96.1275897,25.5927114 93.3299492,25.4956633 C88.6091371,25.4956633 86,22.4369103 86,16.6762589 C86,10.7422781 88.6395939,7.5 93.106599,7.5 C97.2284264,7.5 99.8781726,10.6505156 99.8781726,16.1562709 C99.8781726,16.4519503 99.8781726,16.7578256 99.8781726,17.0535051 L89.177665,17.0738968 Z M93.035533,10.0489608 C90.7614213,10.0489608 89.3401015,11.6700999 89.2081218,14.6574819 L96.7005076,14.6574819 C96.6395939,11.7006874 95.2182741,10.038765 93.035533,10.038765 L93.035533,10.0489608 Z" id="Shape" fill="#124E91" fill-rule="nonzero"></path>
                <path d="M174.5,0.5 C175.880712,0.5 177,1.61928813 177,3 C177,4.38071187 175.880712,5.5 174.5,5.5 C173.119288,5.5 172,4.38071187 172,3 C172,1.61928813 173.119288,0.5 174.5,0.5 Z M174.5,5.08715596 C175.051591,5.08138587 175.577366,4.85262249 175.957579,4.45296691 C176.337792,4.05331133 176.540072,3.51679005 176.518349,2.96559633 C176.575558,2.20609262 176.202768,1.47848153 175.552905,1.0812448 C174.903042,0.684008067 174.08549,0.684008067 173.435627,1.0812448 C172.785765,1.47848153 172.412974,2.20609262 172.470183,2.96559633 C172.432151,3.52841292 172.628716,4.08187758 173.013225,4.49462698 C173.397734,4.90737638 173.935903,5.14260987 174.5,5.14449541 L174.5,5.08715596 Z M173.559633,1.55504587 L174.706422,1.55504587 C175.383028,1.55504587 175.715596,1.83027523 175.715596,2.38073394 C175.735229,2.59206588 175.663843,2.80174591 175.519339,2.95719739 C175.374835,3.11264887 175.170916,3.19912936 174.958716,3.19495413 L175.795872,4.49082569 L175.291284,4.49082569 L174.477064,3.19495413 L174.075688,3.19495413 L174.075688,4.4793578 L173.594037,4.4793578 L173.559633,1.55504587 Z M174.041284,2.81651376 L174.614679,2.81651376 C174.981651,2.81651376 175.222477,2.73623853 175.222477,2.35779817 C175.222477,1.9793578 174.924312,1.93348624 174.614679,1.93348624 L174.041284,1.93348624 L174.041284,2.81651376 Z" id="Shape" fill="#167EC2" fill-rule="nonzero"></path>
                <g id="Artwork_10" transform="translate(0.000000, 1.500000)">
                    <polygon id="Path" fill="#0E7ABF" points="29.2834286 13.64 23.3897143 17.0396667 23.4 17.0603333 29.3554286 23.901 29.3554286 23.901 35.2388571 20.4806667 29.2937143 13.64"></polygon>
                    <polygon id="Path" fill="#D3E2EE" points="29.3554286 23.901 29.3554286 23.901 23.4925714 27.311 23.4925714 27.311 17.568 20.398 17.568 20.398 23.3897143 17.0396667 23.4 17.0603333"></polygon>
                    <polygon id="Path" fill="#D3E2EE" points="29.2937143 13.64 29.2834286 13.64 23.3897143 17.0396667 17.5474286 10.261 23.3485714 6.80966667 23.3588571 6.80966667"></polygon>
                    <polygon id="Path" fill="#0E7ABF" points="17.5885714 30.7416667 23.4925714 27.311 23.4925714 27.311 17.568 20.398"></polygon>
                    <polygon id="Path" fill="#104C8D" points="17.5474286 10.261 23.3897143 17.0396667 17.568 20.398 17.5371429 10.261"></polygon>
                    <polygon id="Path" fill="#0E7ABF" points="17.5371429 10.261 17.5474286 10.261 23.3485714 6.80966667 23.3588571 6.80966667 17.5165714 0.093"></polygon>
                    <polygon id="Path" fill="#0068AB" points="5.74971429 23.8286667 5.74971429 23.8286667 17.5885714 30.7416667 17.568 20.398 17.568 20.398 11.6537143 17.0293333 5.82171429 13.7123333"></polygon>
                    <polygon id="Path" fill="#1E3667" points="17.5371429 10.261 17.568 20.398 17.568 20.398 11.6537143 17.0293333 11.6537143 17.0293333 11.6331429 6.95433333 17.5371429 10.261"></polygon>
                    <polygon id="Path" fill="#0068AB" points="17.5165714 0.093 11.6331429 6.944 11.6331429 6.95433333 17.5371429 10.261 17.5371429 10.261"></polygon>
                    <polygon id="Path" fill="#B1C8D5" points="11.6537143 17.0293333 11.6537143 17.0293333 5.82171429 13.7123333 5.82171429 13.7123333 11.6331429 6.944 11.6331429 6.95433333"></polygon>
                    <polygon id="Path" fill="#1E3667" points="0 20.4806667 5.74971429 23.8286667 5.74971429 23.8286667 5.82171429 13.7123333 5.82171429 13.7123333"></polygon>
                </g>
            </g>
        </g>
    </g>
</svg>